# xmcd CD database file
#
# Track frame offsets:
#	150
#	107187
#	178464
#	241820
#	247616
#
# Disc length: 4637 seconds
#
# Revision: 0
# Processed by: cddbd v1.5.1PL0 Copyright (c) Steve Scherf et al.
# Submitted via: CDex 1.51
#
DISCID=39121b05
DTITLE=Steve Kimock Band - 02-08-10 Disc2
DYEAR=2002
DGENRE=Jazz
TTITLE0=Long Form Part One
TTITLE1=Long Form Part Four
TTITLE2=Moon People
TTITLE3=band intros-
TTITLE4=Its Up To You
EXTD=YEAR: 2002
EXTT0=
EXTT1=
EXTT2=
EXTT3=
EXTT4=
PLAYORDER=
